<?xml version="1.0" encoding="UTF-8" standalone="no"?>
<!DOCTYPE svg PUBLIC "-//W3C//DTD SVG 1.1//EN"
 "http://www.w3.org/Graphics/SVG/1.1/DTD/svg11.dtd">
<!-- Generated by graphviz version 2.43.0 (0)
 -->
<!-- Title: Network Pages: 1 -->
<svg width="528pt" height="476pt"
 viewBox="0.00 0.00 528.49 476.00" xmlns="http://www.w3.org/2000/svg" xmlns:xlink="http://www.w3.org/1999/xlink">
<g id="graph0" class="graph" transform="scale(1 1) rotate(0) translate(4 472)">
<title>Network</title>
<polygon fill="white" stroke="transparent" points="-4,4 -4,-472 524.49,-472 524.49,4 -4,4"/>
<!-- kh -->
<g id="node1" class="node">
<title>kh</title>
<ellipse fill="lightgrey" stroke="black" cx="366.49" cy="-162" rx="27" ry="18"/>
<text text-anchor="middle" x="366.49" y="-158.3" font-family="Times,serif" font-size="14.00">kh</text>
</g>
<!-- tc -->
<g id="node2" class="node">
<title>tc</title>
<ellipse fill="lightgrey" stroke="black" cx="465.49" cy="-234" rx="27" ry="18"/>
<text text-anchor="middle" x="465.49" y="-230.3" font-family="Times,serif" font-size="14.00">tc</text>
</g>
<!-- tc&#45;&#45;kh -->
<g id="edge1" class="edge">
<title>tc&#45;&#45;kh</title>
<path fill="none" stroke="black" d="M447.33,-220.16C429.47,-207.53 402.36,-188.36 384.53,-175.76"/>
</g>
<!-- co -->
<g id="node3" class="node">
<title>co</title>
<ellipse fill="lightgrey" stroke="black" cx="243.49" cy="-90" rx="27" ry="18"/>
<text text-anchor="middle" x="243.49" y="-86.3" font-family="Times,serif" font-size="14.00">co</text>
</g>
<!-- tc&#45;&#45;co -->
<g id="edge2" class="edge">
<title>tc&#45;&#45;co</title>
<path fill="none" stroke="black" d="M457.86,-216.46C447.86,-196.52 428.49,-163.29 402.49,-144 361.95,-113.92 303.32,-100.27 269.75,-94.59"/>
</g>
<!-- qp -->
<g id="node4" class="node">
<title>qp</title>
<ellipse fill="lightgrey" stroke="black" cx="393.49" cy="-234" rx="27" ry="18"/>
<text text-anchor="middle" x="393.49" y="-230.3" font-family="Times,serif" font-size="14.00">qp</text>
</g>
<!-- qp&#45;&#45;kh -->
<g id="edge3" class="edge">
<title>qp&#45;&#45;kh</title>
<path fill="none" stroke="black" d="M387.09,-216.41C382.85,-205.41 377.3,-191.03 373.03,-179.96"/>
</g>
<!-- de -->
<g id="node5" class="node">
<title>de</title>
<ellipse fill="lightgrey" stroke="black" cx="169.49" cy="-162" rx="27" ry="18"/>
<text text-anchor="middle" x="169.49" y="-158.3" font-family="Times,serif" font-size="14.00">de</text>
</g>
<!-- de&#45;&#45;co -->
<g id="edge5" class="edge">
<title>de&#45;&#45;co</title>
<path fill="none" stroke="black" d="M184.46,-146.83C197.3,-134.69 215.7,-117.28 228.54,-105.14"/>
</g>
<!-- cg -->
<g id="node6" class="node">
<title>cg</title>
<ellipse fill="lightgrey" stroke="black" cx="104.49" cy="-90" rx="27" ry="18"/>
<text text-anchor="middle" x="104.49" y="-86.3" font-family="Times,serif" font-size="14.00">cg</text>
</g>
<!-- de&#45;&#45;cg -->
<g id="edge4" class="edge">
<title>de&#45;&#45;cg</title>
<path fill="none" stroke="black" d="M155.7,-146.15C144.67,-134.28 129.28,-117.7 118.25,-105.82"/>
</g>
<!-- aq -->
<g id="node7" class="node">
<title>aq</title>
<ellipse fill="lightgrey" stroke="black" cx="76.49" cy="-18" rx="27" ry="18"/>
<text text-anchor="middle" x="76.49" y="-14.3" font-family="Times,serif" font-size="14.00">aq</text>
</g>
<!-- cg&#45;&#45;aq -->
<g id="edge6" class="edge">
<title>cg&#45;&#45;aq</title>
<path fill="none" stroke="black" d="M97.85,-72.41C93.39,-61.25 87.53,-46.6 83.08,-35.47"/>
</g>
<!-- ka -->
<g id="node8" class="node">
<title>ka</title>
<ellipse fill="lightgrey" stroke="black" cx="169.49" cy="-234" rx="27" ry="18"/>
<text text-anchor="middle" x="169.49" y="-230.3" font-family="Times,serif" font-size="14.00">ka</text>
</g>
<!-- ka&#45;&#45;co -->
<g id="edge8" class="edge">
<title>ka&#45;&#45;co</title>
<path fill="none" stroke="black" d="M181.36,-217.27C188.81,-206.99 198.34,-193.08 205.49,-180 218.7,-155.82 230.58,-126.1 237.41,-107.85"/>
</g>
<!-- ka&#45;&#45;de -->
<g id="edge7" class="edge">
<title>ka&#45;&#45;de</title>
<path fill="none" stroke="black" d="M169.49,-215.7C169.49,-204.85 169.49,-190.92 169.49,-180.1"/>
</g>
<!-- yn -->
<g id="node9" class="node">
<title>yn</title>
<ellipse fill="lightgrey" stroke="black" cx="417.49" cy="-450" rx="27" ry="18"/>
<text text-anchor="middle" x="417.49" y="-446.3" font-family="Times,serif" font-size="14.00">yn</text>
</g>
<!-- yn&#45;&#45;cg -->
<g id="edge10" class="edge">
<title>yn&#45;&#45;cg</title>
<path fill="none" stroke="black" d="M393.29,-441.4C334.84,-421.53 186.87,-361.83 133.49,-252 110.02,-203.72 105.4,-138.98 104.59,-108.39"/>
</g>
<!-- yn&#45;&#45;aq -->
<g id="edge12" class="edge">
<title>yn&#45;&#45;aq</title>
<path fill="none" stroke="black" d="M435.43,-436.38C464.94,-414 520.49,-364.26 520.49,-307 520.49,-307 520.49,-307 520.49,-161 520.49,-72.89 199.26,-31.93 103.26,-21.66"/>
</g>
<!-- wh -->
<g id="node10" class="node">
<title>wh</title>
<ellipse fill="lightgrey" stroke="black" cx="390.49" cy="-378" rx="27" ry="18"/>
<text text-anchor="middle" x="390.49" y="-374.3" font-family="Times,serif" font-size="14.00">wh</text>
</g>
<!-- yn&#45;&#45;wh -->
<g id="edge9" class="edge">
<title>yn&#45;&#45;wh</title>
<path fill="none" stroke="black" d="M411.09,-432.41C406.85,-421.41 401.3,-407.03 397.03,-395.96"/>
</g>
<!-- td -->
<g id="node11" class="node">
<title>td</title>
<ellipse fill="lightgrey" stroke="black" cx="418.49" cy="-306" rx="27" ry="18"/>
<text text-anchor="middle" x="418.49" y="-302.3" font-family="Times,serif" font-size="14.00">td</text>
</g>
<!-- yn&#45;&#45;td -->
<g id="edge11" class="edge">
<title>yn&#45;&#45;td</title>
<path fill="none" stroke="black" d="M421.14,-431.91C423.17,-421.57 425.47,-408.09 426.49,-396 427.83,-380.06 427.69,-375.96 426.49,-360 425.58,-347.94 423.54,-334.46 421.74,-324.11"/>
</g>
<!-- wh&#45;&#45;tc -->
<g id="edge21" class="edge">
<title>wh&#45;&#45;tc</title>
<path fill="none" stroke="black" d="M410.79,-365.91C425.51,-356.71 444.51,-342.22 454.49,-324 466.83,-301.47 467.83,-271.01 466.99,-252.2"/>
</g>
<!-- wh&#45;&#45;qp -->
<g id="edge22" class="edge">
<title>wh&#45;&#45;qp</title>
<path fill="none" stroke="black" d="M387.01,-359.93C383.81,-342 379.92,-313 382.49,-288 383.74,-275.85 386.55,-262.37 389.03,-252.05"/>
</g>
<!-- wh&#45;&#45;td -->
<g id="edge20" class="edge">
<title>wh&#45;&#45;td</title>
<path fill="none" stroke="black" d="M397.13,-360.41C401.59,-349.25 407.45,-334.6 411.9,-323.47"/>
</g>
<!-- td&#45;&#45;tc -->
<g id="edge27" class="edge">
<title>td&#45;&#45;tc</title>
<path fill="none" stroke="black" d="M429.15,-289.12C436.85,-277.66 447.18,-262.26 454.87,-250.82"/>
</g>
<!-- td&#45;&#45;qp -->
<g id="edge28" class="edge">
<title>td&#45;&#45;qp</title>
<path fill="none" stroke="black" d="M412.57,-288.41C408.64,-277.41 403.5,-263.03 399.55,-251.96"/>
</g>
<!-- ub -->
<g id="node12" class="node">
<title>ub</title>
<ellipse fill="lightgrey" stroke="black" cx="307.49" cy="-306" rx="27" ry="18"/>
<text text-anchor="middle" x="307.49" y="-302.3" font-family="Times,serif" font-size="14.00">ub</text>
</g>
<!-- ub&#45;&#45;kh -->
<g id="edge13" class="edge">
<title>ub&#45;&#45;kh</title>
<path fill="none" stroke="black" d="M314.37,-288.43C325.74,-261.07 348.31,-206.75 359.65,-179.46"/>
</g>
<!-- ub&#45;&#45;qp -->
<g id="edge14" class="edge">
<title>ub&#45;&#45;qp</title>
<path fill="none" stroke="black" d="M324.07,-291.5C339.3,-279.11 361.75,-260.84 376.96,-248.46"/>
</g>
<!-- tb -->
<g id="node13" class="node">
<title>tb</title>
<ellipse fill="lightgrey" stroke="black" cx="93.49" cy="-306" rx="27" ry="18"/>
<text text-anchor="middle" x="93.49" y="-302.3" font-family="Times,serif" font-size="14.00">tb</text>
</g>
<!-- tb&#45;&#45;cg -->
<g id="edge16" class="edge">
<title>tb&#45;&#45;cg</title>
<path fill="none" stroke="black" d="M94.06,-287.6C95.08,-258.06 97.38,-196.23 100.49,-144 101.2,-132.03 102.22,-118.55 103.05,-108.18"/>
</g>
<!-- tb&#45;&#45;ka -->
<g id="edge15" class="edge">
<title>tb&#45;&#45;ka</title>
<path fill="none" stroke="black" d="M108.87,-290.83C122.06,-278.69 140.95,-261.28 154.13,-249.14"/>
</g>
<!-- vc -->
<g id="node14" class="node">
<title>vc</title>
<ellipse fill="lightgrey" stroke="black" cx="55.49" cy="-378" rx="27" ry="18"/>
<text text-anchor="middle" x="55.49" y="-374.3" font-family="Times,serif" font-size="14.00">vc</text>
</g>
<!-- vc&#45;&#45;aq -->
<g id="edge19" class="edge">
<title>vc&#45;&#45;aq</title>
<path fill="none" stroke="black" d="M52.13,-360.03C47.18,-333.48 38.49,-280.44 38.49,-235 38.49,-235 38.49,-235 38.49,-161 38.49,-114.3 57.91,-61.8 68.98,-35.66"/>
</g>
<!-- vc&#45;&#45;ub -->
<g id="edge17" class="edge">
<title>vc&#45;&#45;ub</title>
<path fill="none" stroke="black" d="M81.28,-372.16C121.92,-364.19 203.08,-346.87 269.49,-324 274.96,-322.12 280.72,-319.75 286.05,-317.39"/>
</g>
<!-- vc&#45;&#45;tb -->
<g id="edge18" class="edge">
<title>vc&#45;&#45;tb</title>
<path fill="none" stroke="black" d="M64.3,-360.76C70.44,-349.46 78.6,-334.44 84.72,-323.15"/>
</g>
<!-- ta -->
<g id="node15" class="node">
<title>ta</title>
<ellipse fill="lightgrey" stroke="black" cx="233.49" cy="-306" rx="27" ry="18"/>
<text text-anchor="middle" x="233.49" y="-302.3" font-family="Times,serif" font-size="14.00">ta</text>
</g>
<!-- ta&#45;&#45;kh -->
<g id="edge24" class="edge">
<title>ta&#45;&#45;kh</title>
<path fill="none" stroke="black" d="M247.22,-290.34C272.71,-263.13 327.05,-205.11 352.63,-177.79"/>
</g>
<!-- ta&#45;&#45;co -->
<g id="edge26" class="edge">
<title>ta&#45;&#45;co</title>
<path fill="none" stroke="black" d="M234.29,-287.85C236.16,-247.78 240.81,-148.38 242.68,-108.23"/>
</g>
<!-- ta&#45;&#45;de -->
<g id="edge23" class="edge">
<title>ta&#45;&#45;de</title>
<path fill="none" stroke="black" d="M229.72,-288.04C225.3,-269.71 217.06,-239.91 205.49,-216 199,-202.58 189.44,-188.69 181.8,-178.5"/>
</g>
<!-- ta&#45;&#45;ka -->
<g id="edge25" class="edge">
<title>ta&#45;&#45;ka</title>
<path fill="none" stroke="black" d="M219.92,-290.15C209.06,-278.28 193.9,-261.7 183.04,-249.82"/>
</g>
<!-- wq -->
<g id="node16" class="node">
<title>wq</title>
<ellipse fill="lightgrey" stroke="black" cx="83.49" cy="-450" rx="27" ry="18"/>
<text text-anchor="middle" x="83.49" y="-446.3" font-family="Times,serif" font-size="14.00">wq</text>
</g>
<!-- wq&#45;&#45;aq -->
<g id="edge32" class="edge">
<title>wq&#45;&#45;aq</title>
<path fill="none" stroke="black" d="M63.64,-437.65C49.16,-428.32 30.25,-413.77 19.49,-396 -1.47,-361.41 0.49,-347.45 0.49,-307 0.49,-307 0.49,-307 0.49,-161 0.49,-109.27 40.18,-58.15 62.19,-33.77"/>
</g>
<!-- wq&#45;&#45;ub -->
<g id="edge30" class="edge">
<title>wq&#45;&#45;ub</title>
<path fill="none" stroke="black" d="M102.59,-436.89C144.91,-410.07 246.17,-345.88 288.44,-319.08"/>
</g>
<!-- wq&#45;&#45;tb -->
<g id="edge31" class="edge">
<title>wq&#45;&#45;tb</title>
<path fill="none" stroke="black" d="M86.64,-431.88C88.4,-421.53 90.45,-408.05 91.49,-396 93.64,-371.06 93.87,-342.04 93.75,-324.1"/>
</g>
<!-- wq&#45;&#45;vc -->
<g id="edge29" class="edge">
<title>wq&#45;&#45;vc</title>
<path fill="none" stroke="black" d="M76.85,-432.41C72.39,-421.25 66.53,-406.6 62.08,-395.47"/>
</g>
</g>
</svg>
